# xmcd CD database file
#
# Track frame offsets:
#	150
#	20013
#	45514
#	59703
#	88520
#	107545
#	127724
#	145855
#	165113
#	188023
#	204269
#	219771
#	237748
#
# Disc length: 3424 seconds
#
# Revision: 0
# Processed by: cddbd v1.4PL0 Copyright (c) Steve Scherf et al.
# Submitted via: CDex 1.50beta9
#
DISCID=a40d5e0d
DTITLE=Jive Five Minus Two - The Troubadours of Troubled Times
DYEAR=1900
DGENRE=Jazz
TTITLE0=One Kiss
TTITLE1=Boomerang Moon
TTITLE2=Dr. Watson and Mr. Holmes
TTITLE3=The Troubadours of Troubled Times
TTITLE4=Hot Milk
TTITLE5=Someone
TTITLE6=Madness
TTITLE7=The World is Getting Older
TTITLE8=Naked Ayre
TTITLE9=Dancing with the Angels
TTITLE10=Ding Don, the Witch is Dead
TTITLE11=The Long Road
TTITLE12=Oh, What a Beautiful City
EXTD=
EXTT0=
EXTT1=
EXTT2=
EXTT3=
EXTT4=
EXTT5=
EXTT6=
EXTT7=
EXTT8=
EXTT9=
EXTT10=
EXTT11=
EXTT12=
PLAYORDER=
